<svg width="50" height="50" viewBox="0 0 50 50" fill="none" xmlns="http://www.w3.org/2000/svg">
<path d="M14.3693 11.3135L10.4352 11.9308H10.4355C10.0178 11.9963 9.68653 12.3175 9.60827 12.7329C9.24132 14.6699 9.24132 16.6585 9.60827 18.5956C9.68654 19.011 10.0178 19.3322 10.4355 19.3977L14.3697 20.015L14.4073 20.1041L12.0615 23.319H12.0611C11.8123 23.6604 11.8046 24.1211 12.0417 24.4706C13.1503 26.1039 14.5584 27.512 16.1917 28.6206C16.5408 28.8581 17.0015 28.8504 17.3429 28.6012L20.6137 26.2488L20.6133 26.2492C20.6326 26.255 20.6462 26.2724 20.6474 26.2926L21.2643 30.2271V30.2267C21.3297 30.6444 21.651 30.9757 22.066 31.0544C24.0034 31.4217 25.992 31.4217 27.9294 31.0544C28.3444 30.9757 28.6656 30.6444 28.7311 30.2267L29.3483 26.2926C29.3507 26.2794 29.3534 26.2608 29.4375 26.2554L32.6528 28.6012H32.6524C32.9938 28.8503 33.4545 28.8581 33.8036 28.6205C35.4369 27.5119 36.8449 26.1038 37.9536 24.4706C38.1907 24.121 38.183 23.6603 37.9342 23.319L35.5884 20.104C35.5807 20.0932 35.5698 20.0781 35.626 20.0149L39.5605 19.3976C39.9782 19.3322 40.3095 19.0106 40.3878 18.5952C40.7543 16.6586 40.7543 14.67 40.3878 12.7333C40.3095 12.3179 39.9782 11.9963 39.5605 11.9308L35.5818 11.2794C35.5725 11.2616 35.5753 11.2399 35.5884 11.2248L37.9342 8.00943C38.183 7.66806 38.1907 7.20734 37.9532 6.85786C36.845 5.22459 35.4369 3.8165 33.8036 2.70828C33.4545 2.47075 32.9938 2.4785 32.6525 2.72726L29.4371 5.07306L30.0261 5.88097L29.3484 5.03625L28.7311 1.10133C28.6656 0.683622 28.3444 0.352316 27.9286 0.27405C25.9916 -0.0913499 24.0038 -0.0913499 22.0667 0.27405C21.6513 0.352322 21.3297 0.683622 21.2642 1.10133L20.6474 5.03625L21.6351 5.19124L20.5579 5.07306L17.3425 2.72726H17.3429C17.0015 2.4785 16.5408 2.47075 16.1917 2.70828C14.5585 3.8165 13.1504 5.22459 12.0422 6.85786C11.8046 7.20737 11.8124 7.6681 12.0611 8.00943L14.4132 11.2794L14.4136 11.279C14.4078 11.2988 14.3899 11.3128 14.3694 11.3135L14.3693 11.3135ZM16.0223 10.0457L14.103 7.41473C14.8586 6.41503 15.7487 5.52454 16.748 4.76896L19.3794 6.68861H19.3798C19.9587 7.11097 20.7159 7.20164 21.3781 6.92729C22.0403 6.65334 22.5123 6.05429 22.6231 5.34601L23.1276 2.12639V2.12678C24.3688 1.95706 25.6269 1.95706 26.8676 2.12678L27.3725 5.34639C27.4837 6.05433 27.9553 6.6534 28.6175 6.92738C29.2797 7.20172 30.0365 7.11106 30.6154 6.6887L33.2468 4.76905H33.2472C34.2465 5.52465 35.137 6.41511 35.8922 7.41482L33.9729 10.0462C33.5506 10.6251 33.4599 11.3827 33.7342 12.0448C34.0082 12.707 34.6076 13.1786 35.3155 13.2894L38.5351 13.7943C38.7056 15.0351 38.7056 16.2936 38.5351 17.5343L35.3159 18.0392C34.608 18.1504 34.0089 18.622 33.7346 19.2842C33.4603 19.9464 33.5506 20.7036 33.9729 21.2828L35.8929 23.9138H35.8925C35.1369 24.9135 34.2464 25.804 33.2471 26.5596L30.6161 24.6399C30.0368 24.2176 29.2797 24.1273 28.6175 24.4012C27.9553 24.6756 27.4837 25.2746 27.3725 25.9825L26.8676 29.2017C25.6269 29.3722 24.3684 29.3722 23.1276 29.2017L22.6231 25.9821V25.9825C22.5119 25.2742 22.0403 24.6751 21.3781 24.4012C20.7159 24.1273 19.9587 24.2176 19.3798 24.6399L16.748 26.5596C15.7487 25.804 14.8582 24.9135 14.1026 23.9138L16.0226 21.2828H16.0222C16.4446 20.7039 16.5352 19.9467 16.2609 19.2845C15.9869 18.6219 15.3875 18.1503 14.6796 18.0391L11.4604 17.5342H11.4608C11.2899 16.2935 11.2899 15.035 11.4608 13.7942L14.68 13.2893H14.6796C15.3879 13.1785 15.987 12.7069 16.2613 12.0443C16.5352 11.3821 16.445 10.6249 16.0222 10.046L16.0223 10.0457ZM24.9976 21.6636C26.5886 21.6636 28.1149 21.0316 29.2398 19.9063C30.3651 18.7814 30.9971 17.2555 30.9971 15.6641C30.9975 14.0731 30.3651 12.5471 29.2402 11.4219C28.1149 10.2966 26.589 9.6646 24.998 9.6646C23.4066 9.6646 21.8806 10.2966 20.7554 11.4219C19.6305 12.5467 18.9981 14.0731 18.9981 15.6641C19 17.2547 19.6328 18.7795 20.7572 19.9043C21.8821 21.0288 23.4069 21.6616 24.9975 21.6635L24.9976 21.6636ZM24.9976 11.6646V11.6642C26.0585 11.6642 27.0756 12.0858 27.8259 12.8359C28.576 13.5857 28.9976 14.6032 28.9976 15.6642C28.9976 16.7247 28.576 17.7423 27.8262 18.4925C27.076 19.2427 26.0585 19.6639 24.9975 19.6639C23.937 19.6639 22.9194 19.2427 22.1692 18.4925C21.419 17.7423 20.9978 16.7252 20.9978 15.6642C20.999 14.6037 21.4209 13.5872 22.1707 12.8371C22.9205 12.0873 23.9369 11.6657 24.9974 11.6642L24.9976 11.6646ZM6.93789 33.8856H1.0001C0.734668 33.8856 0.480478 33.9906 0.292937 34.1781C0.105396 34.3657 0 34.6202 0 34.8853V48.996C0 49.261 0.105396 49.5152 0.292937 49.7027C0.480478 49.8903 0.734668 49.9957 1.0001 49.9957H6.93789C7.20294 49.9957 7.45751 49.8903 7.64467 49.7027C7.83221 49.5152 7.9376 49.261 7.9376 48.996V48.3059C8.81371 48.2497 9.69288 48.2818 10.5628 48.4016C15.0476 49.1513 19.5781 49.5958 24.123 49.7322C24.5264 49.7384 24.9301 49.7194 25.3312 49.676C29.583 48.9777 33.7423 47.8002 37.7297 46.1661C39.7555 45.1386 41.7108 43.9773 43.5831 42.6912C43.6536 42.6447 43.778 42.5653 43.9396 42.4618C46.6632 40.7197 47.6904 39.9106 48.0624 39.3371C48.1287 39.2956 48.1984 39.2515 48.2713 39.2061L48.2709 39.2057C48.7897 38.9256 49.2714 38.5811 49.7042 38.1805C49.9649 37.8736 50.0611 37.4597 49.9615 37.0696C49.7646 36.3213 49.2628 35.6901 48.5782 35.3298C47.1689 34.6873 45.7523 35.1333 44.496 35.5293C43.2134 36.0594 41.9832 36.7085 40.8219 37.4683C38.8392 38.6497 36.3713 40.1195 34.6237 40.4895V40.4899C32.1845 40.9169 29.7066 41.0828 27.2324 40.9843C27.7102 40.8766 28.1345 40.7662 28.4608 40.6573H28.4604C30.0215 40.176 31.5013 39.4631 32.8506 38.5424C34.2172 37.5822 34.5908 36.3032 33.8511 35.1232C32.6255 33.1606 30.2087 33.8569 29.3051 34.1177V34.1173C27.9582 34.4172 26.5935 34.6319 25.2198 34.7605L24.4836 34.8477C22.545 35.1128 20.5785 35.1023 18.6426 34.8167C16.022 34.3808 13.3476 34.3765 10.7259 34.8047C9.76721 35.0093 8.83259 35.3142 7.93794 35.7145V34.8857C7.93794 34.6206 7.83254 34.3661 7.645 34.1785C7.45785 33.991 7.20327 33.886 6.93823 33.886L6.93789 33.8856ZM5.93819 47.9963L1.9998 47.9959V35.885H5.93819V47.9963ZM11.1604 36.7573C13.5407 36.3861 15.9649 36.3985 18.3409 36.7941C20.459 37.1084 22.6106 37.1215 24.7321 36.8325L25.4509 36.7472C26.9323 36.6104 28.4024 36.3749 29.8524 36.0412C31.729 35.5015 31.9955 35.9277 32.1556 36.1838C32.2168 36.2815 32.3307 36.4636 31.7065 36.9022V36.9026C30.5146 37.7121 29.208 38.3379 27.8305 38.7595C26.329 39.2624 21.771 39.8986 21.3936 39.9429H21.3932C20.9201 39.9983 20.5519 40.3796 20.5128 40.8546C20.4741 41.3293 20.7755 41.7656 21.2331 41.897C21.437 41.9555 24.347 42.7134 25.6691 42.8797C28.7977 43.1358 31.9459 42.9905 35.0377 42.4468C37.11 42.0078 39.6255 40.5094 41.8451 39.1869H41.8454C42.8808 38.5143 43.9704 37.9283 45.1026 37.4355C46.3054 37.0562 47.0843 36.8473 47.7322 37.1422V37.1418C47.7422 37.148 47.7515 37.155 47.7604 37.1623C47.5679 37.2871 47.3586 37.4185 47.2102 37.5111C47.0192 37.6308 46.8429 37.7412 46.7123 37.8273C46.5329 37.9462 46.3961 38.1194 46.3229 38.3221C46.1097 38.5588 45.3642 39.1769 42.8618 40.7776C42.687 40.8892 42.553 40.9752 42.4728 41.0287V41.0283C40.686 42.2524 38.8234 43.3617 36.8956 44.3491C33.0878 45.899 29.1199 47.0212 25.0645 47.6947C23.6211 47.8888 15.9358 47.3285 10.9122 46.433V46.4334C9.92755 46.2893 8.9313 46.2462 7.93824 46.3051V37.9474C8.94767 37.3937 10.0338 36.9927 11.1609 36.7575L11.1604 36.7573Z" fill="#FF3514"/>
</svg>
