<svg width="50" height="50" viewBox="0 0 50 50" fill="none" xmlns="http://www.w3.org/2000/svg">
<path d="M42.6801 7.3199C37.9603 2.60005 31.6803 0 25 0C18.3197 0 12.0404 2.60005 7.31989 7.3199C2.59943 12.0397 0 18.3197 0 25C0 31.6803 2.60005 37.9596 7.31989 42.6801C12.0397 47.4006 18.3197 50 25 50C31.6803 50 37.9596 47.3999 42.6801 42.6801C47.4006 37.9603 50 31.6803 50 25C50 18.3197 47.3999 12.0404 42.6801 7.3199ZM47.8502 25C47.8502 28.6499 46.9901 32.11 45.4601 35.1695L35.7406 29.8997V19.54V19.5201C35.7406 19.4901 35.7406 19.45 35.7304 19.42V19.39C35.7203 19.3499 35.7203 19.3101 35.7106 19.27V19.2502C35.7004 19.21 35.6907 19.1801 35.6705 19.1501C35.6705 19.1399 35.6603 19.1302 35.6603 19.1201C35.6502 19.0901 35.6303 19.0601 35.6202 19.0301C35.6202 19.02 35.6101 19.0102 35.6101 19.0001C35.5902 18.96 35.5602 18.93 35.54 18.8902L35.5299 18.8801C35.51 18.8501 35.48 18.8201 35.45 18.7901C35.4399 18.78 35.4302 18.7703 35.4302 18.7703C35.4103 18.7504 35.3803 18.7301 35.3601 18.7001C35.3499 18.69 35.3402 18.69 35.3301 18.6803C35.3001 18.6503 35.26 18.6304 35.2202 18.6102L26.2507 13.3804L26.2308 2.17076C38.261 2.8104 47.851 12.8099 47.851 24.9999L47.8502 25ZM16.6908 29.8499V21.3299L24.0707 25.6298V34.1499L16.6908 29.8499ZM25.1606 15.2403L32.5207 19.5302L25.1209 23.76L17.7608 19.4702L25.1606 15.2403ZM26.2104 25.6098L33.5903 21.3897V29.9195L26.2104 34.1396V25.6098ZM24.0707 2.16997L24.0906 13.3796L15.0809 18.5296C15.0408 18.5494 15.0108 18.5697 14.9808 18.5997C14.9707 18.6098 14.9609 18.6098 14.9508 18.6195C14.9208 18.6394 14.9009 18.6596 14.871 18.6896L14.8511 18.7095C14.7911 18.7695 14.7412 18.8396 14.691 18.9094C14.6809 18.9195 14.6809 18.9292 14.6809 18.9394C14.661 18.9694 14.6509 18.9993 14.6408 19.0293C14.6408 19.0395 14.6307 19.0492 14.6307 19.0593C14.6108 19.0994 14.6007 19.1392 14.5905 19.1793V19.1894C14.5804 19.2295 14.5707 19.2693 14.5707 19.3094V19.3394C14.5707 19.3694 14.5605 19.4095 14.5605 19.4395V19.4594V29.8289L4.64016 35.3387C3.04 32.2288 2.15028 28.7187 2.15028 24.9987C2.15028 12.7096 11.9001 2.65971 24.0705 2.16954L24.0707 2.16997ZM25.0005 47.8497C16.8806 47.8497 9.74093 43.5996 5.68117 37.1998L15.6016 31.6997L24.5809 36.9295C24.9108 37.0993 25.231 37.1495 25.7908 36.8496L34.6805 31.7597L44.4107 37.0397C40.381 43.5296 33.1814 47.8494 25.0012 47.8494L25.0005 47.8497Z" fill="#FF3514"/>
</svg>
