<svg width="42" height="51" viewBox="0 0 42 51" fill="none" xmlns="http://www.w3.org/2000/svg">
<path d="M21.0005 23.681C22.5002 23.681 23.9381 23.0853 24.9983 22.0249C26.0587 20.9648 26.6544 19.5269 26.6544 18.0271C26.6544 16.5274 26.0587 15.0895 24.9983 14.0294C23.9382 12.969 22.5002 12.3733 21.0005 12.3733C19.5008 12.3733 18.0629 12.969 17.0028 14.0294C15.9423 15.0894 15.3467 16.5274 15.3467 18.0271C15.3485 19.526 15.9449 20.963 17.0046 22.023C18.0647 23.0827 19.5016 23.6791 21.0005 23.681ZM21.0005 13.9887C22.0715 13.9887 23.0987 14.4142 23.8563 15.1713C24.6135 15.9289 25.039 16.9562 25.039 18.0271C25.039 19.0981 24.6135 20.1253 23.8563 20.883C23.0988 21.6402 22.0715 22.0656 21.0005 22.0656C19.9296 22.0656 18.9024 21.6401 18.1447 20.883C17.3875 20.1254 16.9621 19.0981 16.9621 18.0271C16.9635 16.9566 17.3893 15.93 18.1462 15.1728C18.9034 14.4159 19.9299 13.9902 21.0005 13.9887Z" fill="#FF3514"/>
<path d="M33.9229 17.2193H38.769V18.8347H33.9229V17.2193Z" fill="#FF3514"/>
<path d="M40.3848 17.2194H42.0001V18.8347H40.3848V17.2194Z" fill="#FF3514"/>
<path d="M3.23145 17.2193H8.0776V18.8347H3.23145V17.2193Z" fill="#FF3514"/>
<path d="M0 17.2193H1.61538V18.8347H0V17.2193Z" fill="#FF3514"/>
<path d="M12.2026 15.3733C11.7512 15.374 11.3181 15.5539 10.999 15.873C10.6799 16.1925 10.5004 16.6252 10.5 17.077V18.9784V18.978C10.5004 19.4298 10.6799 19.8625 10.999 20.182C11.3181 20.5011 11.7512 20.681 12.2026 20.6817C12.2448 20.6788 12.2845 20.7023 12.3029 20.7405C12.4658 21.263 12.6761 21.7693 12.931 22.2535C12.9476 22.2946 12.9368 22.3415 12.9036 22.3714C12.5845 22.6909 12.4049 23.1239 12.4049 23.5758C12.4049 24.0272 12.5845 24.4606 12.9036 24.7797L14.2478 26.1239C14.5672 26.4434 15.0003 26.6229 15.4525 26.6229C15.9043 26.6229 16.3377 26.4434 16.6572 26.1239C16.6864 26.0915 16.7326 26.0803 16.7733 26.0965C17.2572 26.3518 17.7631 26.562 18.2852 26.7246C18.3245 26.7427 18.3487 26.7827 18.3458 26.8256C18.3469 27.277 18.5264 27.7097 18.8459 28.0288C19.165 28.3476 19.5981 28.5271 20.0495 28.5275H21.9509H21.9505C22.4023 28.5271 22.835 28.3476 23.1545 28.0285C23.4736 27.7094 23.6535 27.2763 23.6542 26.8249C23.6513 26.7827 23.6748 26.743 23.713 26.7246C24.2355 26.5617 24.7418 26.3514 25.226 26.0965C25.2671 26.0796 25.3144 26.0907 25.3439 26.1239C25.6634 26.443 26.0964 26.6226 26.5483 26.6226C26.9997 26.6226 27.4331 26.443 27.7522 26.1239L29.0964 24.7797C29.4155 24.4603 29.5951 24.0268 29.5951 23.575C29.5951 23.1232 29.4155 22.6902 29.0964 22.3703C29.064 22.3411 29.0528 22.295 29.069 22.2542C29.3275 21.7635 29.5399 21.2496 29.7036 20.7196C29.7101 20.7001 29.7408 20.6792 29.7981 20.6792C30.2492 20.6785 30.6815 20.4989 31.0002 20.1802C31.3193 19.8614 31.4989 19.4291 31.5 18.9781V17.0771C31.4996 16.6253 31.3201 16.1926 31.0009 15.8731C30.6818 15.554 30.2488 15.3741 29.7973 15.3733C29.7552 15.3762 29.7155 15.3528 29.6971 15.3146C29.5341 14.7921 29.3239 14.2858 29.069 13.8015C29.0524 13.7604 29.0632 13.7136 29.0964 13.6836C29.4155 13.3642 29.5951 12.9311 29.5951 12.4793C29.5951 12.0279 29.4155 11.5945 29.0964 11.2753L27.7522 9.93115C27.4327 9.61168 26.9997 9.43212 26.5475 9.43212C26.0957 9.43212 25.6623 9.61168 25.3428 9.93115C25.3132 9.96288 25.2674 9.97334 25.2267 9.95855C24.7428 9.70327 24.2369 9.49305 23.7148 9.33043C23.6755 9.3124 23.6513 9.27237 23.6542 9.22946C23.6531 8.77802 23.4736 8.34533 23.1541 8.02623C22.835 7.70748 22.4019 7.52792 21.9505 7.52756H20.0495C19.5948 7.52936 19.1596 7.71181 18.8398 8.03525C18.5203 8.35833 18.3426 8.79571 18.3458 9.25039C18.3476 9.28068 18.3325 9.30916 18.3065 9.32467C17.7765 9.48837 17.2626 9.70039 16.7719 9.95856C16.7304 9.97479 16.6839 9.96361 16.654 9.93116C16.3345 9.61205 15.9011 9.43248 15.4496 9.43248C14.9978 9.43248 14.5648 9.61205 14.2453 9.93116L12.9036 11.2753C12.5845 11.5948 12.4049 12.0282 12.4049 12.48C12.4049 12.9318 12.5845 13.3649 12.9036 13.6848C12.9361 13.714 12.9472 13.7601 12.931 13.8009C12.6757 14.2848 12.4655 14.7907 12.3029 15.3128C12.2849 15.3517 12.2452 15.3759 12.2027 15.3733L12.2026 15.3733ZM13.8462 15.7933C13.9803 15.365 14.1527 14.9492 14.3614 14.5519C14.5313 14.2274 14.5922 13.8567 14.5356 13.4947C14.4786 13.1327 14.307 12.7988 14.0459 12.5417C14.029 12.5251 14.0196 12.5028 14.0196 12.4793C14.0196 12.4563 14.029 12.4335 14.0459 12.4173L15.3898 11.0734C15.4064 11.0565 15.4288 11.0467 15.4526 11.0467C15.476 11.0467 15.4987 11.0565 15.515 11.0734C15.772 11.3345 16.1063 11.5061 16.4683 11.5624C16.8303 11.619 17.201 11.5577 17.5255 11.3875C17.9286 11.1755 18.3501 11.0009 18.7853 10.8664C19.1315 10.7568 19.4333 10.5383 19.6453 10.243C19.857 9.94806 19.968 9.59252 19.9612 9.22947C19.9622 9.18151 20.0012 9.14293 20.0495 9.14293H21.9509H21.9505C21.9988 9.14293 22.0381 9.18187 22.0388 9.23019C22.036 9.59581 22.1503 9.95314 22.3655 10.2488C22.5808 10.5448 22.8851 10.7637 23.2342 10.8737C23.6625 11.0078 24.0783 11.1802 24.4756 11.3889C24.8005 11.5584 25.1708 11.619 25.5328 11.5624C25.8945 11.5054 26.2287 11.3341 26.4858 11.0734C26.5024 11.0565 26.5247 11.0471 26.5482 11.0471C26.5712 11.0471 26.594 11.0565 26.6102 11.0734L27.9541 12.4173C27.971 12.4339 27.9808 12.4563 27.9808 12.4801C27.9808 12.5035 27.971 12.5262 27.9541 12.5425C27.6927 12.7996 27.521 13.1342 27.4641 13.4966C27.4075 13.8589 27.4688 14.2296 27.6393 14.5545C27.8481 14.9522 28.0204 15.368 28.1546 15.7967C28.2645 16.1453 28.4834 16.4493 28.7791 16.6642C29.0748 16.8791 29.4317 16.9934 29.7973 16.9905C29.8457 16.9909 29.8846 17.0302 29.8846 17.0785V18.9799C29.8846 19.0282 29.8449 19.0679 29.7771 19.0679C29.4173 19.065 29.0661 19.1778 28.7751 19.3895C28.4845 19.6015 28.2692 19.9012 28.1618 20.2448C28.0269 20.68 27.8524 21.1015 27.64 21.5046C27.4702 21.8295 27.4093 22.2002 27.4663 22.5618C27.5229 22.9238 27.6949 23.2581 27.9559 23.5152C27.9725 23.5314 27.9819 23.5537 27.9819 23.5772C27.9819 23.6006 27.9725 23.623 27.9559 23.6396L26.6103 24.9816C26.594 24.9989 26.5713 25.0087 26.5475 25.0087C26.5241 25.0087 26.5014 24.9989 26.4851 24.9816C26.228 24.7198 25.8938 24.5478 25.5314 24.4912C25.1687 24.4343 24.7976 24.4959 24.4731 24.6668C24.0754 24.8756 23.6596 25.048 23.2309 25.1821C22.8822 25.2921 22.5783 25.5109 22.3634 25.8066C22.1485 26.1023 22.0342 26.4592 22.037 26.8248C22.0367 26.8732 21.9974 26.9121 21.9491 26.9121H20.0496C20.0012 26.9121 19.9619 26.8732 19.9612 26.8248C19.9641 26.4592 19.8498 26.1019 19.6345 25.8062C19.4193 25.5102 19.1149 25.2913 18.7659 25.1814C18.3375 25.0472 17.9218 24.8749 17.5245 24.6661C17.2814 24.5381 17.011 24.4714 16.7362 24.4714C16.2772 24.4721 15.8377 24.656 15.5143 24.9816C15.4977 24.9985 15.4753 25.0079 15.4519 25.0079C15.4288 25.0079 15.4061 24.9985 15.3899 24.9816L14.046 23.6377C14.029 23.6211 14.0193 23.5987 14.0193 23.5749C14.0193 23.5515 14.029 23.5288 14.046 23.5126C14.3074 23.2555 14.479 22.9209 14.536 22.5585C14.5926 22.1961 14.5313 21.8254 14.3607 21.5005C14.152 21.1028 13.9796 20.6871 13.8455 20.2584C13.7355 19.9097 13.5166 19.6057 13.221 19.3908C12.9253 19.1759 12.5683 19.0616 12.2027 19.0645C12.1551 19.0641 12.1162 19.0259 12.1155 18.9779V17.077C12.1155 17.0286 12.1544 16.9893 12.2027 16.9886C12.5683 16.9915 12.9257 16.8772 13.2213 16.6619C13.5174 16.4467 13.7362 16.1423 13.8462 15.7933L13.8462 15.7933Z" fill="#FF3514"/>
<path d="M9.22913 0L5.19067 2.82692C4.97505 2.97836 4.84668 3.225 4.84668 3.48858C4.84668 3.75217 4.97504 3.9988 5.19067 4.15025L9.22913 6.97717L10.1547 5.65421L8.21661 4.29628H29.0763C30.7894 4.29808 32.4319 4.97957 33.643 6.19108C34.8546 7.40225 35.5361 9.04468 35.5378 10.7578H37.1532C37.1507 8.61637 36.299 6.56326 34.785 5.04914C33.2709 3.53501 31.2177 2.68338 29.0763 2.68089H8.21661L10.1551 1.32332L9.22913 0Z" fill="#FF3514"/>
<path d="M32.7708 36.0538L36.8092 33.2269C37.0248 33.0755 37.1532 32.8288 37.1532 32.5653C37.1532 32.3017 37.0249 32.055 36.8092 31.9036L32.7708 29.0767L31.8452 30.3996L33.7833 31.7576H12.9236C11.2105 31.7558 9.56803 31.0743 8.35686 29.8628C7.14532 28.6516 6.46382 27.0092 6.46206 25.296H4.84668C4.8492 27.4375 5.70088 29.4906 7.21492 31.0047C8.72896 32.5188 10.7822 33.3705 12.9236 33.3729H33.7833L31.8448 34.7305L32.7708 36.0538Z" fill="#FF3514"/>
<path d="M37.2353 40.5168L28.9806 43.2677H25.5858L24.582 42.9334L27.2264 42.2112C28.042 41.9913 28.6878 41.3685 28.9373 40.5612C29.1865 39.7542 29.0048 38.8755 28.4556 38.2337C27.9064 37.5919 27.0663 37.2767 26.2305 37.3982L19.2415 38.3966C19.1798 38.4056 19.1189 38.4215 19.0608 38.4442L16.1376 39.592C15.2268 39.9515 14.2561 40.1357 13.2768 40.1346H10.5007V39.0266C10.5007 38.8124 10.4157 38.6069 10.2642 38.4554C10.1128 38.304 9.90724 38.2189 9.69306 38.2189H3.23152C2.78549 38.2189 2.42383 38.5805 2.42383 39.0266V49.5266C2.42383 49.7408 2.50892 49.9463 2.66037 50.0977C2.81181 50.2492 3.01734 50.3343 3.23152 50.3343H9.69306C9.90724 50.3343 10.1128 50.2492 10.2642 50.0977C10.4157 49.9463 10.5007 49.7408 10.5007 49.5266V48.6525H15.5892C16.2181 48.6529 16.8448 48.729 17.4559 48.879L23.4329 50.3491V50.3487C23.496 50.3642 23.5609 50.3721 23.6258 50.3721C23.6799 50.3721 23.7343 50.3667 23.7873 50.3559L29.8853 49.1364C29.9621 49.1202 30.0361 49.0932 30.1049 49.0557L38.8991 44.4002C39.5326 44.0656 39.9542 43.4335 40.0198 42.7203C40.0854 42.0071 39.7865 41.3087 39.2247 40.8641C38.6629 40.4195 37.9148 40.289 37.2354 40.5169L37.2353 40.5168ZM8.88581 48.7188H4.03965V39.8342H8.88581V48.7188ZM38.4067 42.602C38.3836 42.7606 38.2859 42.8984 38.1442 42.973L29.4511 47.5769L23.6436 48.7383L17.8452 47.3126C17.1078 47.1308 16.3513 47.0389 15.592 47.0389H10.501V41.7524H13.2771C14.4591 41.7539 15.6306 41.5318 16.7299 41.0973L19.5641 39.9828L26.4594 38.998V38.9984C26.9054 38.9295 27.3262 39.2266 27.4099 39.6701C27.4957 40.1064 27.2306 40.5351 26.8019 40.653L21.5833 42.0762C21.2404 42.1703 20.9988 42.4775 20.9891 42.8331C20.9793 43.1886 21.2033 43.5088 21.5404 43.6213L25.201 44.8419C25.2835 44.8696 25.3701 44.8837 25.457 44.8837H29.1158C29.2027 44.8837 29.2888 44.8696 29.371 44.8419L37.7495 42.0496C37.9308 41.9879 38.1317 42.0355 38.2662 42.1725C38.3797 42.2847 38.432 42.4448 38.4068 42.602L38.4067 42.602Z" fill="#FF3514"/>
</svg>
