<svg width="46" height="54" viewBox="0 0 46 54" fill="none" xmlns="http://www.w3.org/2000/svg">
<path d="M34.5003 51.3076H31.5989L28.6505 42.4615H41.5769C42.7495 42.4599 43.8738 41.9935 44.7031 41.1646C45.532 40.3353 45.9984 39.211 46 38.0384V11.5C45.9984 10.3275 45.532 9.20316 44.7031 8.37384C43.8738 7.54492 42.7495 7.07857 41.5769 7.07695H36.2693V8.84618H41.5769C42.2807 8.84618 42.956 9.12578 43.4535 9.62337C43.951 10.121 44.2307 10.7963 44.2307 11.5V35.3845H1.76928V11.5C1.76928 10.7962 2.04888 10.1209 2.54647 9.62337C3.04407 9.12587 3.71942 8.84618 4.42307 8.84618H30.0769V7.07695H4.42307C3.25052 7.07853 2.12621 7.54493 1.29689 8.37384C0.467966 9.20317 0.00161758 10.3275 0 11.5V38.0384C0.00157967 39.211 0.467976 40.3353 1.29689 41.1646C2.12622 41.9935 3.25052 42.4599 4.42307 42.4615H17.3495L14.4011 51.3076H11.4997V53.0769H34.4996L34.5003 51.3076ZM4.42347 40.6923C3.71973 40.6923 3.04438 40.4127 2.54688 39.9151C2.04937 39.4175 1.76968 38.7421 1.76968 38.0385V37.1539H44.2311V38.0385C44.2311 38.7422 43.9515 39.4176 43.4539 39.9151C42.9563 40.4126 42.281 40.6923 41.5773 40.6923H4.42347ZM16.2662 51.3076L19.2146 42.4615H26.7852L29.7336 51.3076H16.2662Z" fill="#FF3514"/>
<path d="M4.42383 32.7307H41.5776V14.1538C41.5776 13.9193 41.4844 13.6942 41.3185 13.5283C41.1527 13.3624 40.9276 13.2692 40.693 13.2692H35.3853C34.8968 13.2692 34.5007 13.6653 34.5007 14.1538V30.9615H32.7315V17.6923C32.7315 17.4577 32.6383 17.2326 32.4724 17.0667C32.3065 16.9009 32.0814 16.8077 31.8468 16.8077H26.5392C26.0507 16.8077 25.6546 17.2038 25.6546 17.6923V30.9615H23.8853V21.2307C23.8853 20.9962 23.7921 20.7711 23.6263 20.6052C23.4604 20.4393 23.2353 20.3461 23.0007 20.3461H17.693C17.2045 20.3461 16.8084 20.7422 16.8084 21.2307V30.9615H15.0392V28.3077C15.0392 28.0731 14.946 27.848 14.7801 27.6821C14.6143 27.5162 14.3892 27.423 14.1546 27.423H8.8469C8.35839 27.423 7.96228 27.8191 7.96228 28.3077V30.9615H4.42383V32.7307ZM36.2699 15.0385H39.8084V16.8077H36.2699V15.0385ZM36.2699 18.5769H39.8084V20.3461H36.2699V18.5769ZM36.2699 22.1154H39.8084V23.8846H36.2699V22.1154ZM36.2699 25.6538H39.8084V27.423H36.2699V25.6538ZM36.2699 29.1923H39.8084V30.9615H36.2699V29.1923ZM27.4238 18.5769H30.9622V20.3461H27.4238V18.5769ZM27.4238 22.1154H30.9622V23.8846H27.4238V22.1154ZM27.4238 25.6538H30.9622V27.423H27.4238V25.6538ZM27.4238 29.1923H30.9622V30.9615H27.4238V29.1923ZM18.5776 22.1154H22.1161V23.8846H18.5776V22.1154ZM18.5776 25.6538H22.1161V27.423H18.5776V25.6538ZM18.5776 29.1923H22.1161V30.9615H18.5776V29.1923ZM9.73151 29.1923H13.27V30.9615H9.73151V29.1923Z" fill="#FF3514"/>
<path d="M4.42383 20.3461H6.19306V22.1154H4.42383V20.3461Z" fill="#FF3514"/>
<path d="M4.42383 23.8846H6.19306V25.6538H4.42383V23.8846Z" fill="#FF3514"/>
<path d="M4.42383 27.423H6.19306V29.1923H4.42383V27.423Z" fill="#FF3514"/>
<path d="M4.42383 16.8077H6.19306V18.5769H4.42383V16.8077Z" fill="#FF3514"/>
<path d="M4.42383 13.2692H6.19306V15.0385H4.42383V13.2692Z" fill="#FF3514"/>
<path d="M38.0652 4.63792L39.7815 4.20786L38.8969 0.669404V0.669798C38.778 0.196293 38.2982 -0.0915959 37.8247 0.0264773L34.2863 0.911091L34.7144 2.62744L36.0334 2.30006L28.8318 13.1014L24.1646 11.5454C23.8467 11.4396 23.4964 11.5225 23.2595 11.7595L18.2864 16.7326L14.3313 15.9412C13.9399 15.8626 13.5446 16.0557 13.3661 16.4127L9.82764 23.4896L11.4112 24.2807L14.6472 17.808L18.4076 18.5599V18.5596C18.6967 18.6168 18.9952 18.5264 19.2037 18.3183L24.1256 13.3972L28.914 14.9938C29.2927 15.1198 29.7085 14.9768 29.9297 14.6451L37.6665 3.039L38.0652 4.63792Z" fill="#FF3514"/>
</svg>
