<svg width="26" height="26" viewBox="0 0 26 26" fill="none" xmlns="http://www.w3.org/2000/svg">
<path d="M24.5556 0H1.44444C1.06135 0 0.693954 0.152182 0.423068 0.423068C0.152182 0.693954 0 1.06135 0 1.44444V24.5556C0 24.9386 0.152182 25.306 0.423068 25.5769C0.693954 25.8478 1.06135 26 1.44444 26H13.8883V15.9467H10.5112V12.0106H13.8883V9.12167C13.8883 5.76333 15.9394 3.93322 18.9439 3.93322C19.9536 3.93033 20.9647 3.98233 21.97 4.08778V7.58333H19.8972C18.2679 7.58333 17.9501 8.36044 17.9501 9.49722V12.0033H21.8458L21.3402 15.9394H17.9487V26H24.5556C24.9386 26 25.306 25.8478 25.5769 25.5769C25.8478 25.306 26 24.9386 26 24.5556V1.44444C26 1.06135 25.8478 0.693954 25.5769 0.423068C25.306 0.152182 24.9386 0 24.5556 0Z" fill="#144788"/>
</svg>
